<svg xmlns="http://www.w3.org/2000/svg" width="72" height="66" viewBox="0 0 72 66"><path fill="#414141" d="M8 53.6L13.2 66h-2.9l-1.1-2.9H3.8l-1 2.9H0l5.2-12.4H8zm-3.3 7.2h3.7l-1.9-4.7-1.8 4.7zM16.1 66V53.6h6.4c1.4 0 2.5.1 3.2.6.9.6 1.4 1.5 1.4 2.6 0 1.4-.6 2.3-1.8 3 1.3.5 1.9 1.4 1.9 2.8 0 2.3-1.3 3.4-4.2 3.4h-6.9zm2.6-7.3h3.8c1.2 0 1.7-.4 1.7-1.4 0-1-.5-1.4-1.7-1.4h-3.8v2.8zm5.5 3.7c0-1-.5-1.5-1.7-1.5h-3.8v2.9h3.8c1.2 0 1.7-.4 1.7-1.4zM32.1 66V53.6h2.7V66h-2.7zM41.4 64.7c-.9-1-1.1-2.1-1.1-3.7v-7.3h2.6V61c0 1 0 1.7.4 2.2.5.7 1.3.8 2.4.8h3.1v2h-3.3c-1.8 0-3-.1-4.1-1.3zM52.8 66V53.6h2.7V66h-2.7zM66.7 53.6L72 66h-2.9L68 63.1h-5.4L61.5 66h-2.8L64 53.6h2.7zm-3.2 7.2h3.7l-1.9-4.7-1.8 4.7z"/><path fill="#E94964" d="M31 14.2L36 .5c.1-.3 0-.5-.3-.5-2.9.2-5.7.9-8.3 2.1-.1.1-.2.2-.2.3l2.1 11.8c0 .2.2.3.3.2.3 0 .6-.1.9-.1.3.1.5 0 .5-.1zM44.6 29.3l11.8 2.3c.1 0 .3 0 .3-.2 1.2-2.5 1.9-5.3 2.1-8.2 0-.2-.2-.4-.4-.3l-13.8 4.8c-.1 0-.2.2-.2.3v.9c-.1.2 0 .4.2.4zM43.2 22.1l15-4.2c.2 0 .3-.2.2-.3-.7-3.3-2.1-6.4-4.1-8.9-.1-.2-.3-.2-.5 0L42.2 20.6c-.1.1-.1.3 0 .4l.6.9c.1.2.2.3.4.2zM38.2 16.5L50.4 5.2c.1-.1.1-.3 0-.5-2.6-2-5.6-3.5-8.9-4.2-.2 0-.3.1-.4.2l-4.5 14.8c0 .1 0 .3.2.4.3.2.7.4 1 .6.2.1.3 0 .4 0zM23.4 33.9c-5.1-5.8-1.9-12.2.5-15.5 0-.1.1-.1.1-.2L22.5 5.9c0-.2-.3-.3-.5-.2-4.5 4.1-7.4 10.1-7.2 16.8.2 11.7 9.7 21.2 21.5 21.5 6.6.2 12.6-2.6 16.8-7.1.2-.2.1-.5-.2-.5l-11.4-1.6c-.1 0-.2 0-.2.1-2.6 1.7-11.1 6.9-17.9-1z"/></svg>